<svg width="21" height="20" viewBox="0 0 21 20" fill="none" xmlns="http://www.w3.org/2000/svg">
<path d="M3.16779 14.5704H16.604C18.8872 14.5704 20.7382 12.7194 20.7382 10.4362C20.7382 8.49706 19.4032 6.86977 17.6021 6.42326C17.6255 6.2138 17.6375 6.0009 17.6375 5.78519C17.6375 2.64571 15.0925 0.100654 11.953 0.100654C9.34901 0.100654 7.15397 1.85152 6.48091 4.24022C6.41054 4.23666 6.3397 4.23486 6.26845 4.23486C3.98519 4.23486 2.13424 6.08581 2.13424 8.36906C2.13424 8.42774 2.13546 8.48613 2.13788 8.54421C0.931694 8.96884 0.0671387 10.1183 0.0671387 11.4697C0.0671387 13.1822 1.45535 14.5704 3.16779 14.5704Z" fill="white"/>
<path d="M5.6634 15.6039C5.40078 15.6039 5.16071 15.7523 5.04326 15.9872L3.66949 18.7347C3.43899 19.1957 3.77421 19.7381 4.28962 19.7381C4.55223 19.7381 4.79231 19.5898 4.90975 19.3549L6.28353 16.6073C6.51402 16.1463 6.1788 15.6039 5.6634 15.6039Z" fill="white"/>
<path d="M8.76405 15.6039C9.27946 15.6039 9.61468 16.1463 9.38418 16.6073L8.0104 19.3549C7.89296 19.5898 7.65289 19.7381 7.39027 19.7381C6.87487 19.7381 6.53965 19.1957 6.77014 18.7347L8.14392 15.9872C8.26136 15.7523 8.50144 15.6039 8.76405 15.6039Z" fill="white"/>
<path d="M14.9654 15.6039C15.4808 15.6039 15.816 16.1463 15.5855 16.6073L14.2117 19.3549C14.0943 19.5898 13.8542 19.7381 13.5916 19.7381C13.0762 19.7381 12.741 19.1957 12.9715 18.7347L14.3452 15.9872C14.4627 15.7523 14.7027 15.6039 14.9654 15.6039Z" fill="white"/>
<path d="M11.8647 15.6039C12.3801 15.6039 12.7153 16.1463 12.4848 16.6073L11.1111 19.3549C10.9936 19.5898 10.7535 19.7381 10.4909 19.7381C9.97552 19.7381 9.6403 19.1957 9.8708 18.7347L11.2446 15.9872C11.362 15.7523 11.6021 15.6039 11.8647 15.6039Z" fill="white"/>
</svg>
